<?xml version="1.0" encoding="UTF-8" standalone="no"?>
<!-- Created with Vectornator (http://vectornator.io/) -->

<svg
   height="848.34528"
   stroke-miterlimit="10"
   style="clip-rule:evenodd;fill-rule:nonzero;stroke-linecap:round;stroke-linejoin:round"
   version="1.1"
   viewBox="0 0 1966.7152 848.34528"
   width="1966.7152"
   xml:space="preserve"
   id="svg180"
   sodipodi:docname="Intermat Logo.svg"
   inkscape:version="1.2.2 (b0a84865, 2022-12-01)"
   xmlns:inkscape="http://www.inkscape.org/namespaces/inkscape"
   xmlns:sodipodi="http://sodipodi.sourceforge.net/DTD/sodipodi-0.dtd"
   xmlns="http://www.w3.org/2000/svg"
   xmlns:svg="http://www.w3.org/2000/svg"
   xmlns:vectornator="http://vectornator.io"><sodipodi:namedview
   id="namedview182"
   pagecolor="#ffffff"
   bordercolor="#000000"
   borderopacity="0.25"
   inkscape:showpageshadow="2"
   inkscape:pageopacity="0.0"
   inkscape:pagecheckerboard="0"
   inkscape:deskcolor="#d1d1d1"
   showgrid="false"
   inkscape:zoom="0.3959333"
   inkscape:cx="1101.1956"
   inkscape:cy="255.09347"
   inkscape:window-width="1440"
   inkscape:window-height="810"
   inkscape:window-x="286"
   inkscape:window-y="1198"
   inkscape:window-maximized="0"
   inkscape:current-layer="Layer-1" />
<defs
   id="defs135">
<filter
   color-interpolation-filters="sRGB"
   filterUnits="userSpaceOnUse"
   height="45.399799"
   id="Filter"
   width="93.764099"
   x="1334.09"
   y="953.72198">
<feGaussianBlur
   in="SourceGraphic"
   result="Blur"
   stdDeviation="0.0116384"
   id="feGaussianBlur132" />
</filter>
</defs>

<g
   id="Layer-1"
   vectornator:layerName="Layer 1"
   transform="translate(-852.07003,-471.48394)">
<g
   opacity="1"
   vectornator:layerName="Group 2"
   id="g157">
<g
   fill="#4000ee"
   opacity="1"
   stroke="none"
   vectornator:layerName="Text 1"
   id="g155">
<path
   id="path139"
   d="m 1389.51,1075.29 v 41.41 c 0,10.62 0.11,16.89 0.32,18.8 1.06,9.56 3.93,14.34 8.6,14.34 1.06,0 3.72,-0.53 7.97,-1.6 1.06,-0.42 2.65,-0.63 4.77,-0.63 8.08,0 12.11,3.5 12.11,10.51 0,2.97 -1.33,5.52 -3.98,7.65 -2.66,2.12 -6,3.18 -10.04,3.18 -3.4,0 -8.55,-0.48 -15.45,-1.43 -6.9,-0.96 -12.05,-1.43 -15.45,-1.43 -5.52,0 -11.68,0.42 -18.48,1.27 -8.28,1.06 -13.8,1.59 -16.56,1.59 -8.5,0 -12.75,-3.61 -12.75,-10.83 0,-7.01 3.61,-10.51 10.83,-10.51 1.7,0 4.2,0.32 7.49,0.95 3.29,0.64 5.79,0.96 7.49,0.96 5.1,0 8.17,-6.8 9.24,-20.39 v -27.72 -26.12 -27.72 c -1.07,-13.38 -4.25,-20.07 -9.56,-20.07 -1.7,0 -4.09,0.37 -7.17,1.12 -3.08,0.74 -5.36,1.11 -6.85,1.11 -7.64,0 -11.47,-3.4 -11.47,-10.19 0,-7.22 4.68,-10.83 14.02,-10.83 4.04,0 6.9,0.1 8.6,0.31 6.8,0.85 11.15,1.28 13.06,1.28 1.7,0 4.3,-0.27 7.81,-0.8 3.5,-0.53 6.11,-0.79 7.8,-0.79 6.16,0 9.24,4.14 9.24,12.42 0,0.85 -0.1,2.12 -0.32,3.82 -0.21,1.7 -0.31,2.98 -0.31,3.83 -0.22,1.7 -0.43,8.28 -0.64,19.75 -0.21,8.71 -0.32,17.63 -0.32,26.76 z"
   sodipodi:nodetypes="sscscsscscscssscsccccscssscscsscccs"
   style="fill:#df0000;fill-opacity:1" />
<path
   d="m 1485.4,1018.26 v 8.92 c 12.75,-16.14 29.74,-24.21 50.98,-24.21 11.47,0 22.3,2.92 32.49,8.76 10.2,5.84 17.1,13.12 20.71,21.82 2.97,7.23 4.46,16.68 4.46,28.36 v 60.53 c 0,9.13 0.11,14.55 0.32,16.25 1.06,7.22 3.93,10.83 8.6,10.83 1.91,0 4.41,-0.27 7.49,-0.8 3.08,-0.53 5.25,-0.79 6.53,-0.79 2.76,0 5.15,0.95 7.17,2.86 2.01,1.91 3.02,4.25 3.02,7.01 0,3.19 -1.27,5.84 -3.82,7.97 -2.55,2.12 -5.63,3.18 -9.24,3.18 -2.97,0 -7.86,-0.42 -14.65,-1.27 -6.8,-0.85 -13.17,-1.28 -19.12,-1.28 -5.52,0 -10.09,0.22 -13.7,0.64 -10.62,1.28 -16.24,1.91 -16.88,1.91 -8.5,0 -12.75,-3.71 -12.75,-11.15 0,-6.58 3.62,-9.87 10.84,-9.87 1.7,0 3.61,0.21 5.73,0.63 4.04,0.85 6.58,1.28 7.65,1.28 5.09,0 7.86,-5.84 8.28,-17.52 l 0.64,-16.25 0.32,-19.44 v -24.21 c 0,-11.25 -0.54,-19.01 -1.6,-23.25 -1.91,-8.08 -6.05,-14.34 -12.42,-18.8 -7.01,-4.89 -14.98,-7.33 -23.9,-7.33 -16.99,0 -29.2,6.05 -36.63,18.16 -5.1,8.28 -7.65,22.41 -7.65,42.37 v 42.37 c 0,9.35 0.64,15.72 1.91,19.12 1.28,3.4 3.61,5.1 7.01,5.1 1.7,0 4.04,-0.43 7.01,-1.28 2.97,-0.85 5.42,-1.27 7.33,-1.27 6.58,0 9.87,3.61 9.87,10.83 0,7.01 -4.24,10.51 -12.74,10.51 -1.7,0 -7.22,-0.63 -16.57,-1.91 -4.67,-0.64 -9.87,-0.95 -15.61,-0.95 -4.46,0 -10.4,0.42 -17.84,1.27 -9.34,1.06 -14.65,1.59 -15.93,1.59 -8.92,0 -13.38,-3.61 -13.38,-10.83 0,-6.8 3.4,-10.19 10.2,-10.19 1.06,0 3.02,0.31 5.89,0.95 2.87,0.64 5.68,0.96 8.44,0.96 6.38,0 9.67,-6.16 9.88,-18.48 l 0.64,-35.36 v -38.55 l -0.64,-11.15 c -0.42,-7.22 -1.33,-12.16 -2.71,-14.82 -1.38,-2.65 -3.77,-3.98 -7.17,-3.98 -1.48,0 -3.66,0.27 -6.53,0.8 -2.86,0.53 -5.04,0.79 -6.53,0.79 -7.64,0 -11.47,-3.39 -11.47,-10.19 0,-7.01 4.78,-10.51 14.34,-10.51 1.27,0 2.34,0.1 3.19,0.32 l 11.78,1.27 c 3.4,0 6.37,-0.21 8.92,-0.64 5.53,-0.42 8.39,-0.63 8.61,-0.63 6.15,0 9.23,3.18 9.23,9.55 z"
   id="path141"
   style="fill:#df0000;fill-opacity:1" />
<path
   d="m 1727.21,1123.71 0.64,-20.39 c 0.21,-8.7 4.03,-13.06 11.46,-13.06 7.44,0 11.16,4.89 11.16,14.66 0,23.15 -2.98,39.29 -8.93,48.42 -8.07,12.32 -21.34,18.48 -39.82,18.48 -16.99,0 -29.1,-5.42 -36.32,-16.25 -5.31,-7.86 -7.96,-21.24 -7.96,-40.14 v -76.46 c 0,-4.46 -2.02,-6.69 -6.05,-6.69 h -10.2 c -3.4,0 -6.21,-1.11 -8.44,-3.34 -2.23,-2.23 -3.35,-4.94 -3.35,-8.13 0,-2.97 1.12,-5.63 3.35,-7.96 2.23,-2.34 4.72,-3.51 7.49,-3.51 h 12.42 c 3.61,0 5.42,-2.02 5.42,-6.05 v -32.815 c 0,-8.07 4.14,-12.106 12.42,-12.106 7.65,0 11.47,4.036 11.47,12.106 v 34.085 c 0,3.19 1.91,4.78 5.73,4.78 h 34.73 c 8.07,0 12.11,3.72 12.11,11.15 0,7.86 -4.36,11.79 -13.07,11.79 h -35.04 c -2.97,0 -4.46,2.23 -4.46,6.69 v 78.37 c 0,22.3 7.33,33.45 21.98,33.45 14.87,0 22.62,-9.02 23.26,-27.08 z"
   id="path143"
   style="fill:#df0000;fill-opacity:1" />
<path
   d="m 1911.67,1074.01 c 0,8.08 -0.53,13.01 -1.59,14.82 -1.07,1.8 -4.15,2.71 -9.24,2.71 h -101.31 c -2.76,0 -4.57,0.37 -5.42,1.11 -0.85,0.75 -1.27,1.97 -1.27,3.67 0,15.92 4.78,29.2 14.33,39.82 9.56,10.62 21.45,15.93 35.68,15.93 9.35,0 17.9,-2.55 25.65,-7.65 7.75,-5.1 12.8,-11.57 15.13,-19.43 l 2.87,-9.24 c 1.49,-5.1 4.99,-7.65 10.51,-7.65 7.86,0 11.79,4.04 11.79,12.11 0,13.8 -7.01,26.07 -21.03,36.8 -14.01,10.72 -29.94,16.08 -47.78,16.08 -22.3,0 -40.04,-7.48 -53.21,-22.46 -13.16,-14.97 -19.75,-35.09 -19.75,-60.37 0,-25.91 7.01,-46.94 21.03,-63.08 14.02,-16.14 32.28,-24.21 54.79,-24.21 19.97,0 36.43,6.69 49.38,20.07 12.96,13.38 19.44,30.37 19.44,50.97 z m -115.65,-8.28 c 0,2.98 2.34,4.46 7.01,4.46 h 76.14 c 4.46,0 6.69,-1.48 6.69,-4.46 0,-11.25 -4.24,-21.02 -12.74,-29.31 -8.5,-8.28 -18.48,-12.42 -29.95,-12.42 -11.89,0 -22.72,4.3 -32.49,12.9 -9.77,8.6 -14.66,18.21 -14.66,28.83 z"
   id="path145"
   style="fill:#df0000;fill-opacity:1" />
<path
   d="m 1983.35,1017.63 v 8.6 c 11.04,-15.51 25.8,-23.26 44.28,-23.26 14.87,0 26.92,4.2 36.16,12.58 9.24,8.39 13.86,19.17 13.86,32.34 0,9.35 -2.34,16.94 -7.01,22.78 -4.67,5.84 -10.83,8.76 -18.48,8.76 -4.88,0 -9.02,-1.49 -12.42,-4.46 -3.4,-2.97 -5.1,-6.58 -5.1,-10.83 0,-3.4 1.28,-6.43 3.82,-9.08 2.55,-2.66 5.53,-3.98 8.92,-3.98 0.64,0 2.02,0.32 4.15,0.95 1.27,-2.55 1.91,-4.88 1.91,-7.01 0,-6.16 -2.71,-11.36 -8.13,-15.61 -5.41,-4.24 -12.16,-6.37 -20.23,-6.37 -16.56,0 -27.61,7.44 -33.13,22.3 -3.4,9.14 -5.1,22.94 -5.1,41.42 v 21.02 c 0,14.23 0.11,22.2 0.32,23.9 1.06,12.1 4.36,18.16 9.88,18.16 2.76,0 5.63,-0.43 8.6,-1.28 2.34,-0.63 4.35,-0.95 6.05,-0.95 6.8,0 10.2,3.4 10.2,10.19 0,7.44 -4.36,11.15 -13.06,11.15 h -1.28 c -3.18,0 -8.02,-0.37 -14.49,-1.11 -6.48,-0.75 -11.31,-1.12 -14.5,-1.12 -8.49,0 -15.18,0.21 -20.07,0.64 l -17.84,1.59 c -8.71,0 -13.06,-3.71 -13.06,-11.15 0,-6.58 4.03,-9.87 12.1,-9.87 2.13,0 3.72,0.1 4.78,0.31 l 4.78,0.96 c 2.13,0.43 3.61,0.64 4.46,0.64 5.31,0 8.18,-4.89 8.6,-14.66 l 0.64,-16.25 -0.96,-72.31 c -0.63,-12.53 -3.82,-18.8 -9.55,-18.8 -1.7,0 -4.04,0.32 -7.01,0.96 -2.98,0.63 -5.31,0.95 -7.01,0.95 -7.01,0 -10.51,-3.4 -10.51,-10.19 0,-7.44 4.56,-11.15 13.7,-11.15 2.12,0 5.3,0.26 9.55,0.79 4.25,0.53 7.44,0.8 9.56,0.8 1.7,0 4.46,-0.21 8.28,-0.64 1.7,-0.42 3.72,-0.63 6.06,-0.63 5.52,0 8.28,2.97 8.28,8.92 z"
   id="path147"
   style="fill:#df0000;fill-opacity:1" />
<path
   d="m 2219.1,1017.94 v 9.24 c 7.65,-9.13 14.87,-15.45 21.66,-18.95 6.8,-3.51 15.3,-5.26 25.49,-5.26 20.82,0 36.11,8.07 45.88,24.21 7.22,-8.92 14.55,-15.18 21.98,-18.79 7.43,-3.61 16.99,-5.42 28.67,-5.42 12.11,0 22.94,2.55 32.5,7.65 10.62,5.73 17.94,13.8 21.98,24.21 2.76,7.01 4.14,18.05 4.14,33.13 v 30.9 l -0.32,23.9 c 0,8.71 0.11,14.02 0.32,15.93 1.06,7.64 3.82,11.47 8.28,11.47 1.49,0 3.72,-0.32 6.69,-0.96 2.98,-0.64 5.21,-0.96 6.69,-0.96 7.44,0 11.16,3.19 11.16,9.56 0,7.44 -4.25,11.15 -12.75,11.15 -3.18,0 -8.02,-0.37 -14.49,-1.11 -6.48,-0.75 -11.42,-1.12 -14.82,-1.12 -3.61,0 -8.86,0.37 -15.77,1.12 -6.9,0.74 -12.16,1.11 -15.77,1.11 -8.92,0 -13.38,-3.71 -13.38,-11.15 0,-6.37 3.4,-9.56 10.2,-9.56 0.85,0 2.97,0.22 6.37,0.64 1.27,0.43 2.97,0.64 5.1,0.64 3.61,0 5.89,-1.81 6.85,-5.42 0.95,-3.61 1.54,-12.63 1.75,-27.08 l 0.32,-19.43 v -21.03 c 0,-14.65 -1.12,-25.32 -3.35,-32.01 -2.23,-6.69 -6.42,-11.95 -12.58,-15.77 -6.16,-3.83 -13.17,-5.74 -21.03,-5.74 -15.08,0 -25.59,5.21 -31.54,15.61 -4.67,8.29 -7.01,22.73 -7.01,43.33 v 22.62 c 0,19.96 0.48,32.44 1.44,37.43 0.95,4.99 3.45,7.49 7.48,7.49 1.28,0 3.14,-0.27 5.58,-0.8 2.44,-0.53 4.3,-0.79 5.57,-0.79 2.98,0 5.47,1 7.49,3.02 2.02,2.02 3.03,4.52 3.03,7.49 0,7.01 -5,10.51 -14.98,10.51 -3.18,0 -7.91,-0.42 -14.17,-1.27 -6.27,-0.85 -11,-1.28 -14.18,-1.28 -4.46,0 -9.35,0.43 -14.66,1.28 -5.31,0.85 -9.98,1.27 -14.01,1.27 -8.71,0 -13.07,-3.61 -13.07,-10.83 0,-6.58 3.19,-9.88 9.56,-9.88 2.34,0 4.14,0.22 5.42,0.64 2.97,0.64 5.2,0.96 6.69,0.96 5.1,0 7.75,-5.42 7.96,-16.25 l 0.32,-14.97 c 0.21,-4.68 0.32,-9.24 0.32,-13.7 0.21,-3.83 0.32,-5.84 0.32,-6.06 v -26.44 c 0,-18.48 -2.5,-31.33 -7.49,-38.55 -4.99,-7.22 -13.86,-10.83 -26.6,-10.83 -14.02,0 -24.74,5.1 -32.18,15.29 -6.16,8.29 -9.24,22.73 -9.24,43.33 v 42.37 c 0,8.5 0.11,13.49 0.32,14.98 0.85,7.22 3.19,10.83 7.01,10.83 1.06,0 3.29,-0.43 6.69,-1.28 0.43,0 1.06,-0.1 1.91,-0.32 0.85,0 1.6,0 2.23,0 8.29,0 12.43,3.51 12.43,10.52 0,6.79 -4.78,10.19 -14.34,10.19 -3.61,0 -8.07,-0.32 -13.38,-0.95 -7.22,-0.85 -13.38,-1.28 -18.48,-1.28 -2.55,0 -7.22,0.32 -14.01,0.96 -9.14,0.85 -14.66,1.27 -16.57,1.27 -8.5,0 -12.74,-3.61 -12.74,-10.83 0,-6.58 4.03,-9.88 12.1,-9.88 0.43,0 1.06,0 1.91,0 0.85,0.22 1.49,0.32 1.92,0.32 l 7.96,1.6 c 0.21,0.21 0.64,0.31 1.27,0.31 5.74,0 8.82,-5.2 9.24,-15.61 l 0.64,-18.16 v -48.74 c 0,-18.05 -0.48,-29.31 -1.43,-33.77 -0.96,-4.46 -3.56,-6.69 -7.81,-6.69 -0.85,0 -3.82,0.53 -8.92,1.59 -2.12,0.43 -3.82,0.64 -5.1,0.64 -7.85,0 -11.78,-3.4 -11.78,-10.19 0,-7.22 4.35,-10.83 13.06,-10.83 2.33,0 5.52,0.21 9.56,0.63 4.03,0.43 7.54,0.64 10.51,0.64 1.06,0 2.23,-0.11 3.5,-0.32 1.28,0 2.02,0 2.23,0 l 7.65,-0.95 h 0.96 c 5.09,0 7.64,3.07 7.64,9.23 z"
   id="path149"
   style="fill:#df0000;fill-opacity:1" />
<path
   d="m 2603.95,1171.82 c -17.42,0 -28.14,-7.54 -32.18,-22.62 -10.83,15.93 -27.82,23.89 -50.97,23.89 -17.2,0 -30.96,-4.24 -41.26,-12.74 -10.3,-8.49 -15.45,-19.86 -15.45,-34.09 0,-17.63 7.54,-30.58 22.62,-38.86 5.74,-3.19 10.67,-5.26 14.81,-6.22 4.15,-0.95 12.48,-2.17 25.01,-3.66 17.84,-1.91 29.47,-4.57 34.89,-7.97 5.41,-3.39 8.12,-9.66 8.12,-18.79 0,-8.71 -3.02,-15.56 -9.08,-20.55 -6.05,-4.99 -14.49,-7.49 -25.32,-7.49 -9.56,0 -18.48,2.66 -26.77,7.97 -3.18,2.12 -4.77,4.35 -4.77,6.69 0,0.85 0.95,1.91 2.86,3.18 2.98,2.13 4.46,5.74 4.46,10.84 0,4.24 -1.54,7.75 -4.62,10.51 -3.08,2.76 -6.95,4.14 -11.62,4.14 -5.53,0 -10.15,-1.91 -13.86,-5.73 -3.72,-3.83 -5.58,-8.5 -5.58,-14.02 0,-11.9 5.9,-22.09 17.68,-30.59 11.79,-8.49 26.07,-12.74 42.85,-12.74 38.66,0 57.98,18.58 57.98,55.75 v 64.36 c 0,10.19 0.22,16.24 0.64,18.16 1.28,7.43 4.89,11.15 10.83,11.15 7.44,0 11.15,-6.8 11.15,-20.39 v -15.61 c 0,-6.8 3.3,-10.2 9.88,-10.2 7.01,0 10.51,5.1 10.51,15.29 v 1.6 l -0.32,18.16 c -0.42,20.39 -11.25,30.58 -32.49,30.58 z m -35.36,-63.4 0.32,-22.62 c -4.68,4.25 -9.62,7.22 -14.82,8.92 -5.2,1.7 -14.49,3.19 -27.87,4.46 -24.22,2.34 -36.32,11.26 -36.32,26.76 0,8.07 2.92,14.45 8.76,19.12 5.84,4.67 13.75,7.01 23.73,7.01 14.23,0 25.44,-3.88 33.61,-11.63 8.18,-7.75 12.37,-18.43 12.59,-32.02 z"
   id="path151"
   style="fill:#df0000;fill-opacity:1" />
<path
   d="m 2734.25,1123.71 0.64,-20.39 c 0.21,-8.7 4.03,-13.06 11.47,-13.06 7.43,0 11.15,4.89 11.15,14.66 0,23.15 -2.98,39.29 -8.92,48.42 -8.07,12.32 -21.35,18.48 -39.83,18.48 -16.99,0 -29.09,-5.42 -36.32,-16.25 -5.3,-7.86 -7.96,-21.24 -7.96,-40.14 v -76.46 c 0,-4.46 -2.02,-6.69 -6.05,-6.69 h -10.2 c -3.4,0 -6.21,-1.11 -8.44,-3.34 -2.23,-2.23 -3.35,-4.94 -3.35,-8.13 0,-2.97 1.12,-5.63 3.35,-7.96 2.23,-2.34 4.73,-3.51 7.49,-3.51 h 12.42 c 3.61,0 5.42,-2.02 5.42,-6.05 v -32.815 c 0,-8.07 4.14,-12.106 12.42,-12.106 7.65,0 11.47,4.036 11.47,12.106 v 34.085 c 0,3.19 1.91,4.78 5.74,4.78 h 34.72 c 8.07,0 12.11,3.72 12.11,11.15 0,7.86 -4.36,11.79 -13.06,11.79 h -35.05 c -2.97,0 -4.46,2.23 -4.46,6.69 v 78.37 c 0,22.3 7.33,33.45 21.98,33.45 14.87,0 22.62,-9.02 23.26,-27.08 z"
   id="path153"
   style="fill:#df0000;fill-opacity:1" />
</g>
</g>

<path
   d="M 1335.37,777.94"
   fill="none"
   opacity="1"
   stroke="#000000"
   stroke-linecap="butt"
   stroke-linejoin="round"
   stroke-width="2.44685"
   vectornator:layerName="Curve 9"
   id="path161" />
<path
   d="m 957.601,1137.79 c 15.919,-37.53 22.362,-46.4 29.196,-103.23 7.417,-61.677 0.773,-154.608 -1.479,-173.179 -3.677,-30.322 -1.268,-74.82 21.152,-120.272 31.3,-63.478 66.57,-110.12 121.81,-151.464"
   fill="none"
   opacity="1"
   stroke="#000000"
   stroke-linecap="round"
   stroke-linejoin="round"
   stroke-width="30.6338"
   vectornator:layerName="Curve 2"
   id="path163" />
<path
   d="m 1068.21,845.546 c 3.1,-22.848 5.24,-71.229 29.16,-119.281 24.22,-48.663 49.7,-67.051 113.23,-105.298"
   fill="none"
   opacity="1"
   stroke="#000000"
   stroke-linecap="round"
   stroke-linejoin="round"
   stroke-width="30.6338"
   vectornator:layerName="Curve 13"
   id="path165" />
<path
   d="m 1087.52,1201.28 c 0,0 28.15,-85.61 40.75,-137.08 10.92,-44.63 23.29,-77.907 111.9,-84.916"
   fill="none"
   opacity="1"
   stroke="#000000"
   stroke-linecap="round"
   stroke-linejoin="round"
   stroke-width="30.6338"
   vectornator:layerName="Curve 7"
   id="path167" />
<path
   d="m 1142.2,851.236 c 11.03,-69.222 12.93,-97.594 40.68,-127.072 34.22,-36.357 80.05,-59.362 145.3,-55.661"
   fill="none"
   opacity="1"
   stroke="#000000"
   stroke-linecap="round"
   stroke-linejoin="round"
   stroke-width="30.6338"
   vectornator:layerName="Curve 11"
   id="path169" />
<path
   d="m 1322.4,962.628 c -26.83,15.393 -38.6,27.719 -49.27,25.497 -13.27,-2.766 -35.19,-8.566 -47.99,-20.764 -30.73,-29.273 -10.01,-134.899 -7.95,-140.667 1.49,-4.152 1.6,-4.737 3.94,-10.729 2.48,-6.327 16.32,-22.603 26.42,-26.53 17.79,-6.911 32.29,-0.142 47.91,5.442 11.42,4.083 53.66,24.697 53.66,24.697"
   fill="none"
   opacity="1"
   stroke="#000000"
   stroke-linecap="round"
   stroke-linejoin="round"
   stroke-width="30.6338"
   vectornator:layerName="Curve 10"
   id="path171" />
<g
   opacity="1"
   vectornator:layerName="Group 1"
   id="g177"
   style="stroke:#df0000;stroke-opacity:1">
<path
   d="m 1296.15,935.206 56.65,-94.268 78.84,80.879 -68.82,47.923 -10.02,-128.802 z"
   fill="#ffffff"
   fill-rule="nonzero"
   opacity="1"
   stroke="#4000ee"
   stroke-linecap="butt"
   stroke-linejoin="round"
   stroke-width="15.4643"
   vectornator:layerName="Curve 8"
   id="path173"
   style="fill:none;stroke:#df0000;stroke-opacity:1" />
<path
   d="m 1296.15,935.206 66.67,34.534 z"
   fill="#ffffff"
   fill-rule="nonzero"
   opacity="1"
   stroke="#4000ee"
   stroke-linecap="butt"
   stroke-linejoin="round"
   stroke-width="15.4643"
   vectornator:layerName="Curve 9"
   id="path175"
   style="stroke:#df0000;fill:#ff0000;stroke-opacity:1" />
</g>
</g>
</svg>
