<?xml version="1.0" encoding="UTF-8" standalone="no"?>
<!-- Created with Vectornator (http://vectornator.io/) -->

<svg
   height="660"
   stroke-miterlimit="10"
   style="clip-rule:evenodd;fill-rule:nonzero;stroke-linecap:round;stroke-linejoin:round"
   version="1.1"
   viewBox="0 0 660.00001 660"
   width="660"
   xml:space="preserve"
   id="svg180"
   sodipodi:docname="intermatfavicon.svg"
   inkscape:version="1.2.2 (b0a84865, 2022-12-01)"
   inkscape:export-filename="Intermatfavicon.png"
   inkscape:export-xdpi="2.3272727"
   inkscape:export-ydpi="2.3272727"
   xmlns:inkscape="http://www.inkscape.org/namespaces/inkscape"
   xmlns:sodipodi="http://sodipodi.sourceforge.net/DTD/sodipodi-0.dtd"
   xmlns="http://www.w3.org/2000/svg"
   xmlns:svg="http://www.w3.org/2000/svg"
   xmlns:vectornator="http://vectornator.io"><sodipodi:namedview
   id="namedview182"
   pagecolor="#ffffff"
   bordercolor="#000000"
   borderopacity="0.25"
   inkscape:showpageshadow="2"
   inkscape:pageopacity="0.0"
   inkscape:pagecheckerboard="0"
   inkscape:deskcolor="#d1d1d1"
   showgrid="false"
   inkscape:zoom="0.3959333"
   inkscape:cx="-114.91835"
   inkscape:cy="149.015"
   inkscape:window-width="1440"
   inkscape:window-height="810"
   inkscape:window-x="270"
   inkscape:window-y="218"
   inkscape:window-maximized="0"
   inkscape:current-layer="Layer-1" />
<defs
   id="defs135">
<filter
   color-interpolation-filters="sRGB"
   filterUnits="userSpaceOnUse"
   height="45.399799"
   id="Filter"
   width="93.764099"
   x="1334.09"
   y="953.72198">
<feGaussianBlur
   in="SourceGraphic"
   result="Blur"
   stdDeviation="0.0116384"
   id="feGaussianBlur132" />
</filter>
</defs>

<g
   id="Layer-1"
   vectornator:layerName="Layer 1"
   transform="translate(-852.07003,-471.48394)">









<rect
   style="clip-rule:evenodd;fill:#ffffff;fill-rule:nonzero;stroke:#ffffff;stroke-width:0.4;stroke-linecap:square;stroke-linejoin:round;stop-color:#000000"
   id="rect858"
   width="664.2533"
   height="654.15057"
   x="856.90991"
   y="472.7468" /><path
   d="M 1211,498.94361"
   fill="none"
   opacity="1"
   stroke="#000000"
   stroke-linecap="butt"
   stroke-linejoin="round"
   stroke-width="2.44684"
   vectornator:layerName="Curve 9"
   id="path161" /><path
   d="m 255.70484,1402.1114 c 40.25566,-94.1945 56.5486,-116.4569 73.8303,-259.0913 18.75596,-154.79979 1.95474,-388.04215 -3.74008,-434.65248 -9.29832,-76.10354 -3.2065,-187.78663 53.48878,-301.86412 C 458.4347,247.18356 547.62482,130.11936 687.3147,26.352311"
   fill="none"
   opacity="1"
   stroke="#000000"
   stroke-linecap="round"
   stroke-linejoin="round"
   stroke-width="30.6337"
   vectornator:layerName="Curve 2"
   id="path163" /><path
   d="m 535.4108,668.62421 c 7.83923,-57.34494 13.25082,-178.77376 73.73927,-299.37684 61.24708,-122.1366 125.68043,-168.28764 286.3339,-264.28169"
   fill="none"
   opacity="1"
   stroke="#000000"
   stroke-linecap="round"
   stroke-linejoin="round"
   stroke-width="30.6337"
   vectornator:layerName="Curve 13"
   id="path165" /><path
   d="m 584.24157,1577.4615 c 0,0 71.1852,-214.8679 103.04784,-344.0496 27.6143,-112.0144 58.89533,-195.5345 282.97061,-213.126"
   fill="none"
   opacity="1"
   stroke="#000000"
   stroke-linecap="round"
   stroke-linejoin="round"
   stroke-width="30.6337"
   vectornator:layerName="Curve 7"
   id="path167"
   style="stroke-width:69.034;stroke-dasharray:none" /><path
   d="M 722.51534,682.90523 C 750.40779,509.16873 755.21247,437.9594 825.38617,363.97418 911.92107,272.72373 1027.815,214.98475 1192.818,224.27368"
   fill="none"
   opacity="1"
   stroke="#000000"
   stroke-linecap="round"
   stroke-linejoin="round"
   stroke-width="30.6337"
   vectornator:layerName="Curve 11"
   id="path169" /><path
   d="m 1178.2016,978.48191 c -67.8472,38.63409 -97.6108,69.57029 -124.593,63.99339 -33.5569,-6.9421 -88.98778,-21.4992 -121.35616,-52.11429 -77.70943,-73.47069 -25.31306,-338.57561 -20.10384,-353.0524 3.7679,-10.42087 4.04608,-11.88913 9.96345,-26.92812 6.27127,-15.87979 41.26971,-56.73004 66.81034,-66.58621 44.98701,-17.34553 81.65441,-0.35639 121.15391,13.65859 28.8787,10.24769 135.6945,61.98565 135.6945,61.98565"
   fill="none"
   opacity="1"
   stroke="#000000"
   stroke-linecap="round"
   stroke-linejoin="round"
   stroke-width="30.6337"
   vectornator:layerName="Curve 10"
   id="path171"
   style="stroke-width:69.034;stroke-dasharray:none" /><g
   opacity="1"
   vectornator:layerName="Group 1"
   id="g177"
   style="stroke:#df0000;stroke-width:16.20497014;stroke-dasharray:none;stroke-opacity:1"
   transform="matrix(3.096282,0,0,3.074702,-2940.0275,-1964.9523)">
<path
   d="m 1296.15,935.206 56.65,-94.268 78.84,80.879 -68.82,47.923 -10.02,-128.802 z"
   fill="#ffffff"
   fill-rule="nonzero"
   opacity="1"
   stroke="#4000ee"
   stroke-linecap="butt"
   stroke-linejoin="round"
   stroke-width="6.34211"
   vectornator:layerName="Curve 8"
   id="path173"
   style="fill:none;stroke:#df0000;stroke-width:16.20497014;stroke-dasharray:none;stroke-opacity:1"
   sodipodi:nodetypes="cccccc" />
<path
   d="m 1296.15,935.206 66.67,34.534 z"
   fill="#ffffff"
   fill-rule="nonzero"
   opacity="1"
   stroke="#4000ee"
   stroke-linecap="butt"
   stroke-linejoin="round"
   stroke-width="6.34211"
   vectornator:layerName="Curve 9"
   id="path175"
   style="fill:#ff0000;stroke:#df0000;stroke-width:16.20497014;stroke-dasharray:none;stroke-opacity:1" />
</g></g>
</svg>
